<?xml version="1.0" encoding="UTF-8" standalone="no"?>
<!-- Generator: Adobe Illustrator 11.0, SVG Export Plug-In  -->
<svg
   xmlns:dc="http://purl.org/dc/elements/1.1/"
   xmlns:cc="http://creativecommons.org/ns#"
   xmlns:rdf="http://www.w3.org/1999/02/22-rdf-syntax-ns#"
   xmlns:svg="http://www.w3.org/2000/svg"
   xmlns="http://www.w3.org/2000/svg"
   xmlns:sodipodi="http://sodipodi.sourceforge.net/DTD/sodipodi-0.dtd"
   xmlns:inkscape="http://www.inkscape.org/namespaces/inkscape"
   width="600.59052"
   height="600.59052"
   viewBox="-0.327 -0.089 463 463"
   xml:space="preserve"
   id="svg2"
   sodipodi:version="0.32"
   inkscape:version="0.46"
   sodipodi:docname="piratsegelsymbol_whitecircle.svg"
   inkscape:output_extension="org.inkscape.output.svg.inkscape"
   version="1.0"><metadata
   id="metadata15"><rdf:RDF><cc:Work
       rdf:about=""><dc:format>image/svg+xml</dc:format><dc:type
         rdf:resource="http://purl.org/dc/dcmitype/StillImage" /></cc:Work></rdf:RDF></metadata><sodipodi:namedview
   inkscape:window-height="768"
   inkscape:window-width="1024"
   inkscape:pageshadow="2"
   inkscape:pageopacity="0.0"
   guidetolerance="10.0"
   gridtolerance="10.0"
   objecttolerance="10.0"
   borderopacity="1.0"
   bordercolor="#666666"
   pagecolor="#ffffff"
   id="base"
   showgrid="false"
   units="cm"
   inkscape:zoom="0.70710678"
   inkscape:cx="339.1465"
   inkscape:cy="325.55842"
   inkscape:window-x="0"
   inkscape:window-y="0"
   inkscape:current-layer="svg2" />
	<defs
   id="defs4"><inkscape:perspective
   sodipodi:type="inkscape:persp3d"
   inkscape:vp_x="0 : 231.5 : 1"
   inkscape:vp_y="0 : 1000 : 0"
   inkscape:vp_z="463 : 231.5 : 1"
   inkscape:persp3d-origin="231.5 : 154.33333 : 1"
   id="perspective17" />
	
		
		 
		
	</defs>
	
<path
   style="fill:#ffffff"
   d="M 226.21875,57.375 C 162.04295,58.494013 100.78968,98.669531 73.765988,156.77488 C 47.953716,210.44624 52.449152,278.21258 85.90625,327.5 C 117.58199,375.74926 174.6462,406.65798 232.625,405.5625 C 289.53511,405.35356 345.19187,375.32409 376.3125,327.6875 C 409.06296,278.83614 414.64906,212.86466 389.77117,159.45824 C 366.03898,106.74002 314.76737,67.381137 257.38683,59.284163 C 247.12549,57.734345 236.64593,57.148361 226.21875,57.375 z"
   id="path2427" /><path
   id="path2393"
   d="M 146.21741,138.15928 C 164.92503,132.70896 243.80356,143.44771 227.68541,219.74986 C 221.81958,247.5172 189.63571,261.04432 174.03639,272.72665 C 137.10913,300.38144 168.91139,366.06124 168.91139,366.06124 C 168.91139,366.06124 151.70627,314.97548 190.0204,290.80598 C 225.2717,268.56838 346.80225,279.0165 346.38442,210.4265 C 345.58344,79.013687 140.81334,126.42067 146.21741,138.15928 z" /><rect
   id="rect2395"
   height="193.21265"
   width="15.578507"
   y="100.57521"
   x="161.94395" /><path
   id="path2397"
   d="M 231.173,53.326265 C 132.81903,53.326265 53.08788,133.05741 53.08788,231.41061 C 53.08788,329.76536 132.81903,409.49574 231.173,409.49574 C 329.52697,409.49574 409.25812,329.76536 409.25812,231.41061 C 409.25812,133.05741 329.52697,53.326265 231.173,53.326265 z M 231.173,392.15186 C 142.39833,392.15186 70.43254,320.18529 70.43254,231.41061 C 70.43254,142.63672 142.39833,70.670922 231.173,70.670922 C 319.94767,70.670922 391.91347,142.63672 391.91347,231.41061 C 391.91347,320.18606 319.94767,392.15186 231.173,392.15186 z" /></svg>